<svg version="1.1" shape-rendering="geometricPrecision" xmlns="http://www.w3.org/2000/svg" x="0px" y="0px" width="869.146px" height="560.786px" viewBox="0 0 869.146 560.786">
<rect x="66.587" y="0.389" fill="#FFFFFF" width="730.715" height="560"/>
<path fill="#2970B8" d="M431.068,0.389h262.846l-210.279,350c-12.268,19.248-5.258,45.494,17.523,59.498
	c21.026,12.25,49.063,3.5,61.329-17.496L799.051,0.389h1.755c36.798,0,68.342,29.75,68.342,66.5v425.25
	c0,36.748-29.791,68.248-66.588,68.248h-5.256L641.347,324.141l-52.571,85.746l98.132,150.502H431.07V367.895l96.379-157.504
	c12.266-21,3.502-47.25-17.521-59.504c-22.329-11.984-50.145-4.266-63.086,17.5l-15.771,22.746V0.389H431.068z M66.587,0.389
	l155.959,236.254l52.571-85.752L173.483,0.395h257.59v192.498l-94.624,157.504c-12.263,19.248-5.256,45.496,17.521,59.498
	c21.027,12.25,50.817,3.5,63.086-17.5l14.02-24.492v192.494H171.729l210.28-349.996c12.265-20.998,5.258-47.248-17.523-59.504
	c-22.327-11.982-50.144-4.264-63.083,17.498L64.833,560.389c-35.046,0-64.834-31.5-64.834-68.248V66.893
	C-0.001,31.893,29.789,0.389,66.587,0.389z"/>
</svg>
